<svg width="61" height="53" viewBox="0 0 61 53" fill="none" xmlns="http://www.w3.org/2000/svg">
<rect y="14" width="37" height="37" fill="#0178E0"/>
<path d="M32.358 5.65498C30.5532 7.00079 30.2303 8.53571 30.1242 10.7182C28.8849 9.88881 29.364 5.88322 27.8544 5.54648C25.6855 5.06269 26.146 5.57824 25.0801 3.55737C23.866 1.25537 17.7796 1.97211 15.8567 2.76173C6.11611 6.76163 5.40406 20.4881 6.27299 29.3073C6.57784 32.4014 7.06815 38.0594 11.0648 38.0594H18.4508C21.452 38.0594 25.7617 43.3761 26.7375 46.2329C30.1265 56.1549 48.4613 48.2301 52.6784 43.6289C60.2798 35.3352 60.7995 21.0149 55.4526 11.6223C53.2673 7.78358 51.5462 9.41621 48.2828 9.41621C44.0595 9.41621 42.6763 8.91321 38.8793 6.52296C36.1655 4.81463 34.9737 3.7045 32.358 5.65498Z" fill="#A0D3FF" stroke="#0178E0" stroke-width="3" stroke-linecap="round"/>
</svg>
