<svg width="152" height="59" viewBox="0 0 152 59" fill="none" xmlns="http://www.w3.org/2000/svg">
<rect x="116" y="8.85714" width="21.1429" height="21.1429" fill="#0178E0"/>
<path d="M134.49 4.08856C133.459 4.85759 133.275 5.73469 133.214 6.98181C132.506 6.50789 132.78 4.21899 131.917 4.02656C130.678 3.75011 130.941 4.04471 130.332 2.88993C129.638 1.5745 126.16 1.98406 125.061 2.43527C119.495 4.72093 119.088 12.5647 119.585 17.6042C119.759 19.3722 120.039 22.6054 122.323 22.6054H126.543C128.258 22.6054 130.721 25.6435 131.279 27.2759C133.215 32.9457 143.692 28.4172 146.102 25.788C150.446 21.0487 150.743 12.8656 147.687 7.49847C146.439 5.3049 145.455 6.23783 143.59 6.23783C141.177 6.23783 140.387 5.9504 138.217 4.58455C136.666 3.60836 135.985 2.974 134.49 4.08856Z" fill="#A0D3FF" stroke="#0178E0" stroke-width="3" stroke-linecap="round"/>
<path d="M118.081 58.4545V32.3326H123.275V35.5236H123.51C123.741 35.0124 124.075 34.4929 124.512 33.9652C124.957 33.4292 125.535 32.984 126.244 32.6294C126.961 32.2666 127.852 32.0852 128.915 32.0852C130.301 32.0852 131.579 32.448 132.749 33.1736C133.92 33.891 134.856 34.9753 135.557 36.4265C136.258 37.8695 136.608 39.6794 136.608 41.8562C136.608 43.9753 136.266 45.7646 135.582 47.2241C134.906 48.6753 133.982 49.7761 132.811 50.5264C131.649 51.2685 130.346 51.6396 128.903 51.6396C127.88 51.6396 127.011 51.4705 126.293 51.1325C125.584 50.7944 125.003 50.3698 124.549 49.8585C124.096 49.3391 123.749 48.8155 123.51 48.2878H123.349V58.4545H118.081ZM123.238 41.8315C123.238 42.9611 123.395 43.9465 123.708 44.7875C124.022 45.6286 124.475 46.2841 125.069 46.7541C125.662 47.2158 126.384 47.4467 127.233 47.4467C128.091 47.4467 128.816 47.2117 129.41 46.7417C130.004 46.2635 130.453 45.6038 130.758 44.7628C131.071 43.9135 131.228 42.9364 131.228 41.8315C131.228 40.7348 131.076 39.7701 130.771 38.9373C130.465 38.1045 130.016 37.4531 129.422 36.9831C128.829 36.5131 128.099 36.2781 127.233 36.2781C126.376 36.2781 125.65 36.5048 125.056 36.9583C124.471 37.4119 124.022 38.055 123.708 38.8878C123.395 39.7206 123.238 40.7018 123.238 41.8315Z" fill="#0178E0"/>
<path d="M108.418 26H113.773V42.4499C113.773 44.2969 113.332 45.913 112.45 47.2983C111.576 48.6836 110.352 49.7637 108.777 50.5388C107.202 51.3056 105.367 51.6891 103.273 51.6891C101.17 51.6891 99.3313 51.3056 97.7564 50.5388C96.1815 49.7637 94.9571 48.6836 94.083 47.2983C93.209 45.913 92.772 44.2969 92.772 42.4499V26H98.1275V41.9923C98.1275 42.957 98.3377 43.8145 98.7583 44.5649C99.187 45.3152 99.7889 45.9048 100.564 46.3336C101.339 46.7623 102.242 46.9767 103.273 46.9767C104.312 46.9767 105.215 46.7623 105.981 46.3336C106.756 45.9048 107.354 45.3152 107.775 44.5649C108.204 43.8145 108.418 42.957 108.418 41.9923V26Z" fill="#0178E0"/>
<path d="M78.7824 51.7262C77.1993 51.7262 75.8017 51.3263 74.5896 50.5264C73.3775 49.7184 72.4292 48.5805 71.7448 47.1128C71.0605 45.6368 70.7183 43.8929 70.7183 41.881C70.7183 39.8855 71.0605 38.154 71.7448 36.6863C72.4292 35.2185 73.3816 34.0848 74.6019 33.285C75.8223 32.4851 77.2323 32.0852 78.8319 32.0852C80.0687 32.0852 81.0458 32.2914 81.7632 32.7036C82.4888 33.1077 83.0413 33.5694 83.4206 34.0889C83.8081 34.6001 84.1091 35.0206 84.3234 35.3505H84.5708V26H87.4897V51.3304H84.6698V48.4114H84.3234C84.1091 48.7578 83.804 49.1948 83.4082 49.7225C83.0124 50.242 82.4476 50.7078 81.7137 51.1201C80.9799 51.5242 80.0028 51.7262 78.7824 51.7262ZM79.1782 49.1041C80.3491 49.1041 81.3386 48.799 82.1466 48.1888C82.9547 47.5704 83.569 46.717 83.9895 45.6286C84.41 44.5319 84.6203 43.2662 84.6203 41.8315C84.6203 40.4133 84.4142 39.1723 84.0019 38.1086C83.5896 37.0367 82.9794 36.2039 82.1714 35.6102C81.3633 35.0083 80.3656 34.7073 79.1782 34.7073C77.9414 34.7073 76.9107 35.0248 76.0861 35.6597C75.2698 36.2863 74.6555 37.1398 74.2432 38.2199C73.8392 39.2919 73.6372 40.4957 73.6372 41.8315C73.6372 43.1838 73.8433 44.4123 74.2556 45.5173C74.6761 46.6139 75.2946 47.4879 76.1109 48.1393C76.9354 48.7825 77.9579 49.1041 79.1782 49.1041Z" fill="#0178E0"/>
<path d="M63.3446 43.5631V32.3326H66.2636V51.3304H63.3446V48.1146H63.1467C62.7015 49.0793 62.0089 49.8998 61.0689 50.5759C60.1289 51.2438 58.9415 51.5777 57.5068 51.5777C56.3194 51.5777 55.264 51.318 54.3405 50.7985C53.417 50.2708 52.6914 49.4792 52.1636 48.4238C51.6359 47.3601 51.3721 46.0202 51.3721 44.4041V32.3326H54.291V44.2062C54.291 45.5915 54.6785 46.6964 55.4536 47.5209C56.237 48.3455 57.2347 48.7578 58.4468 48.7578C59.1724 48.7578 59.9104 48.5722 60.6607 48.2012C61.4193 47.8301 62.0542 47.2612 62.5654 46.4944C63.0849 45.7275 63.3446 44.7504 63.3446 43.5631Z" fill="#0178E0"/>
<path d="M38.3071 51.7262C36.592 51.7262 35.0872 51.318 33.7927 50.5017C32.5063 49.6854 31.5004 48.5434 30.7748 47.0757C30.0574 45.608 29.6987 43.8929 29.6987 41.9304C29.6987 39.9515 30.0574 38.224 30.7748 36.7481C31.5004 35.2721 32.5063 34.126 33.7927 33.3097C35.0872 32.4934 36.592 32.0852 38.3071 32.0852C40.0222 32.0852 41.5229 32.4934 42.8092 33.3097C44.1037 34.126 45.1097 35.2721 45.8271 36.7481C46.5527 38.224 46.9155 39.9515 46.9155 41.9304C46.9155 43.8929 46.5527 45.608 45.8271 47.0757C45.1097 48.5434 44.1037 49.6854 42.8092 50.5017C41.5229 51.318 40.0222 51.7262 38.3071 51.7262ZM38.3071 49.1041C39.6099 49.1041 40.6818 48.7701 41.5229 48.1022C42.3639 47.4343 42.9865 46.5562 43.3905 45.4678C43.7945 44.3794 43.9965 43.2002 43.9965 41.9304C43.9965 40.6606 43.7945 39.4774 43.3905 38.3807C42.9865 37.284 42.3639 36.3977 41.5229 35.7215C40.6818 35.0454 39.6099 34.7073 38.3071 34.7073C37.0043 34.7073 35.9324 35.0454 35.0913 35.7215C34.2503 36.3977 33.6277 37.284 33.2237 38.3807C32.8197 39.4774 32.6177 40.6606 32.6177 41.9304C32.6177 43.2002 32.8197 44.3794 33.2237 45.4678C33.6277 46.5562 34.2503 47.4343 35.0913 48.1022C35.9324 48.7701 37.0043 49.1041 38.3071 49.1041Z" fill="#0178E0"/>
<path d="M25.2436 26V51.3304H22.3247V26H25.2436Z" fill="#0178E0"/>
<path d="M0 51.3304V26H3.06735V38.5662H3.36419L14.7431 26H18.7504L8.11364 37.4284L18.7504 51.3304H15.0399L6.23365 39.5557L3.06735 43.1178V51.3304H0Z" fill="#0178E0"/>
</svg>
